<?xml version="1.0" encoding="UTF-8" standalone="no"?>
<!-- Created with Inkscape (http://www.inkscape.org/) -->

<svg
   xmlns:dc="http://purl.org/dc/elements/1.1/"
   xmlns:cc="http://creativecommons.org/ns#"
   xmlns:rdf="http://www.w3.org/1999/02/22-rdf-syntax-ns#"
   xmlns:svg="http://www.w3.org/2000/svg"
   xmlns="http://www.w3.org/2000/svg"
   xmlns:sodipodi="http://sodipodi.sourceforge.net/DTD/sodipodi-0.dtd"
   xmlns:inkscape="http://www.inkscape.org/namespaces/inkscape"
   width="143.12749mm"
   height="163.00549mm"
   viewBox="0 0 507.14464 577.57852"
   id="svg33530"
   version="1.1"
   inkscape:version="0.91 r13725"
   sodipodi:docname="light.svg">
  <defs
     id="defs33532" />
  <sodipodi:namedview
     id="base"
     pagecolor="#ffffff"
     bordercolor="#666666"
     borderopacity="1.0"
     inkscape:pageopacity="0.0"
     inkscape:pageshadow="2"
     inkscape:zoom="0.49497475"
     inkscape:cx="89.56345"
     inkscape:cy="267.04453"
     inkscape:document-units="px"
     inkscape:current-layer="layer1"
     showgrid="false"
     fit-margin-top="0"
     fit-margin-left="0"
     fit-margin-right="0"
     fit-margin-bottom="0"
     inkscape:window-width="1600"
     inkscape:window-height="837"
     inkscape:window-x="0"
     inkscape:window-y="30"
     inkscape:window-maximized="1" />
  <metadata
     id="metadata33535">
    <rdf:RDF>
      <cc:Work
         rdf:about="">
        <dc:format>image/svg+xml</dc:format>
        <dc:type
           rdf:resource="http://purl.org/dc/dcmitype/StillImage" />
        <dc:title></dc:title>
      </cc:Work>
    </rdf:RDF>
  </metadata>
  <g
     inkscape:label="Layer 1"
     inkscape:groupmode="layer"
     id="layer1"
     transform="translate(-131.99417,-272.04075)">
    <g
       id="g7556"
       transform="matrix(1.25,0,0,-1.25,332.27948,745.32988)">
      <path
         d="m 0,0 c -4.569,0 -8.287,-3.718 -8.287,-8.287 0,-4.571 3.718,-8.29 8.287,-8.29 l 84.054,0 c 4.573,0 8.293,3.719 8.293,8.29 0,4.569 -3.72,8.287 -8.293,8.287 L 0,0 Z m 84.054,-23.577 -84.054,0 c -8.429,0 -15.287,6.859 -15.287,15.29 C -15.287,0.143 -8.429,7 0,7 l 84.054,0 c 8.432,0 15.293,-6.857 15.293,-15.287 0,-8.431 -6.861,-15.29 -15.293,-15.29"
         style="fill:#434040;fill-opacity:1;fill-rule:nonzero;stroke:none"
         id="path7558"
         inkscape:connector-curvature="0" />
    </g>
    <g
       id="g7560"
       transform="matrix(1.25,0,0,-1.25,330.00898,792.02051)">
      <path
         d="m 0,0 c 1.637,-11.027 10.889,-19.692 22.4,-20.357 l 2.835,-0.164 0.425,-2.808 c 1.378,-9.126 9.037,-15.75 18.212,-15.75 9.18,0 16.84,6.623 18.214,15.749 l 0.423,2.806 2.832,0.167 C 76.823,-19.681 86.053,-11.016 87.687,0 L 0,0 Z m 43.872,-46.079 c -11.74,0 -21.68,7.844 -24.582,19.007 C 4.202,-24.88 -7.257,-11.938 -7.257,3.5 l 0,3.5 102.201,0 0,-3.5 c 0,-15.421 -11.431,-28.36 -26.487,-30.568 -2.896,-11.166 -12.839,-19.011 -24.585,-19.011"
         style="fill:#434040;fill-opacity:1;fill-rule:nonzero;stroke:none"
         id="path7562"
         inkscape:connector-curvature="0" />
    </g>
    <path
       inkscape:connector-curvature="0"
       id="path7566"
       style="fill:#434040;fill-opacity:1;fill-rule:nonzero;stroke:none"
       d="m 323.72286,719.06525 121.41125,0 0,-42.73249 0.62375,-1.04001 c 14.51,-24.1875 32.145,-50.01125 47.17625,-69.07999 19.265,-24.42625 29.4475,-53.76751 29.4475,-84.85251 0,-75.85125 -61.70375,-137.56125 -137.55,-137.56125 -75.85375,0 -137.56625,61.71 -137.56625,137.56125 0,31.06626 10.17875,60.4 29.435,84.83125 16.675,21.16 32.72625,44.63251 46.4175,67.8825 l 0.605,1.0275 0,43.96375 z m 130.16125,8.75 -138.91125,0 0,-50.32625 c -13.36125,-22.58 -28.955,-45.33625 -45.145,-65.88125 -20.485,-25.98875 -31.3125,-57.19625 -31.3125,-90.2475 0,-80.67625 65.6375,-146.31125 146.31625,-146.31125 80.67,0 146.3,65.635 146.3,146.31125 0,33.07 -10.8325,64.28501 -31.32625,90.27001 -14.6,18.52125 -31.71125,43.54124 -45.92125,67.12749 l 0,49.0575 z" />
    <g
       id="g7568"
       transform="matrix(1.25,0,0,-1.25,361.40173,721.23813)">
      <path
         d="m 0,0 -26.575,121.324 7.815,1.711 L 7.814,1.711 0,0 Z"
         style="fill:#434040;fill-opacity:1;fill-rule:nonzero;stroke:none"
         id="path7570"
         inkscape:connector-curvature="0" />
    </g>
    <g
       id="g7572"
       transform="matrix(1.25,0,0,-1.25,407.1451,724.357)">
      <path
         d="M 0,0 -6.844,1.467 19.73,125.408 26.574,123.941 0,0 Z"
         style="fill:#434040;fill-opacity:1;fill-rule:nonzero;stroke:none"
         id="path7574"
         inkscape:connector-curvature="0" />
    </g>
    <path
       d="m 410.17773,826.41663 -49.16625,0 0,-8.75 49.16625,0 0,8.75 z"
       style="fill:#434040;fill-opacity:1;fill-rule:nonzero;stroke:none"
       id="path7576"
       inkscape:connector-curvature="0" />
    <g
       id="g7578"
       transform="matrix(1.25,0,0,-1.25,377.01148,620.62775)">
      <path
         d="m 0,0 -7.001,26.836 -19.024,-12.731 -2.781,4.157 24.868,16.64 5,-19.164 L 13.9,46.978 24.484,16.782 43.22,25.349 45.298,20.802 21.578,9.956 13.529,32.921 0,0 Z"
         style="fill:#434040;fill-opacity:1;fill-rule:nonzero;stroke:none"
         id="path7580"
         inkscape:connector-curvature="0" />
    </g>
    <g
       id="g7582"
       transform="matrix(1.25,0,0,-1.25,390.29335,344.54075)">
      <path
         d="m 0,0 c -1.657,0 -3,1.343 -3,3 l 0,52 c 0,1.657 1.343,3 3,3 1.657,0 3,-1.343 3,-3 L 3,3 C 3,1.343 1.657,0 0,0"
         style="fill:#434040;fill-opacity:1;fill-rule:nonzero;stroke:none"
         id="path7584"
         inkscape:connector-curvature="0" />
    </g>
    <g
       id="g7586"
       transform="matrix(1.25,0,0,-1.25,489.8991,368.87788)">
      <path
         d="m 0,0 c -0.529,0 -1.065,0.14 -1.552,0.435 -1.417,0.858 -1.87,2.703 -1.011,4.12 l 26.952,44.471 c 0.859,1.417 2.701,1.871 4.12,1.011 1.417,-0.859 1.87,-2.704 1.011,-4.12 L 2.568,1.446 C 2.004,0.515 1.015,0 0,0"
         style="fill:#434040;fill-opacity:1;fill-rule:nonzero;stroke:none"
         id="path7588"
         inkscape:connector-curvature="0" />
    </g>
    <g
       id="g7590"
       transform="matrix(1.25,0,0,-1.25,551.78998,447.33913)">
      <path
         d="m 0,0 c -1.082,0 -2.127,0.587 -2.662,1.612 -0.767,1.469 -0.198,3.281 1.27,4.048 l 46.098,24.063 c 1.471,0.767 3.282,0.196 4.048,-1.272 0.767,-1.469 0.198,-3.281 -1.271,-4.048 L 1.386,0.341 C 0.942,0.109 0.467,0 0,0"
         style="fill:#434040;fill-opacity:1;fill-rule:nonzero;stroke:none"
         id="path7592"
         inkscape:connector-curvature="0" />
    </g>
    <g
       id="g7594"
       transform="matrix(1.25,0,0,-1.25,635.39223,539.96488)">
      <path
         d="M 0,0 C -0.064,0 -0.129,0.002 -0.194,0.006 L -52.088,3.32 c -1.653,0.106 -2.908,1.532 -2.803,3.185 0.106,1.654 1.528,2.896 3.186,2.803 L 0.188,5.994 C 1.842,5.888 3.097,4.462 2.991,2.809 2.89,1.22 1.569,0 0,0"
         style="fill:#434040;fill-opacity:1;fill-rule:nonzero;stroke:none"
         id="path7596"
         inkscape:connector-curvature="0" />
    </g>
    <g
       id="g7598"
       transform="matrix(1.25,0,0,-1.25,594.00673,670.86825)">
      <path
         d="m 0,0 c -0.592,0 -1.189,0.175 -1.712,0.539 l -42.662,29.732 c -1.359,0.947 -1.693,2.816 -0.746,4.175 0.946,1.36 2.816,1.694 4.176,0.746 L 1.718,5.461 C 3.077,4.514 3.411,2.645 2.464,1.285 1.881,0.448 0.948,0 0,0"
         style="fill:#434040;fill-opacity:1;fill-rule:nonzero;stroke:none"
         id="path7600"
         inkscape:connector-curvature="0" />
    </g>
    <g
       id="g7602"
       transform="matrix(1.25,0,0,-1.25,281.23448,368.87788)">
      <path
         d="M 0,0 C -1.015,0 -2.004,0.515 -2.568,1.446 L -29.52,45.917 c -0.859,1.416 -0.406,3.261 1.011,4.12 1.416,0.86 3.262,0.406 4.12,-1.011 L 2.563,4.555 C 3.421,3.139 2.969,1.293 1.552,0.435 1.066,0.14 0.529,0 0,0"
         style="fill:#434040;fill-opacity:1;fill-rule:nonzero;stroke:none"
         id="path7604"
         inkscape:connector-curvature="0" />
    </g>
    <g
       id="g7606"
       transform="matrix(1.25,0,0,-1.25,219.34423,447.33913)">
      <path
         d="m 0,0 c -0.468,0 -0.942,0.109 -1.386,0.341 l -46.097,24.062 c -1.469,0.767 -2.038,2.579 -1.272,4.048 0.768,1.469 2.58,2.037 4.048,1.272 L 1.391,5.66 C 2.859,4.893 3.429,3.081 2.662,1.612 2.126,0.587 1.082,0 0,0"
         style="fill:#434040;fill-opacity:1;fill-rule:nonzero;stroke:none"
         id="path7608"
         inkscape:connector-curvature="0" />
    </g>
    <g
       id="g7610"
       transform="matrix(1.25,0,0,-1.25,135.74073,539.96488)">
      <path
         d="m 0,0 c -1.57,0 -2.89,1.22 -2.991,2.809 -0.106,1.653 1.149,3.079 2.803,3.185 L 51.706,9.308 C 53.368,9.411 54.786,8.159 54.892,6.505 54.997,4.852 53.742,3.426 52.089,3.32 L 0.194,0.006 C 0.129,0.002 0.064,0 0,0"
         style="fill:#434040;fill-opacity:1;fill-rule:nonzero;stroke:none"
         id="path7612"
         inkscape:connector-curvature="0" />
    </g>
    <g
       id="g7614"
       transform="matrix(1.25,0,0,-1.25,177.1256,670.86825)">
      <path
         d="m 0,0 c -0.948,0 -1.88,0.448 -2.464,1.285 -0.947,1.36 -0.613,3.229 0.746,4.176 l 42.663,29.731 c 1.358,0.948 3.228,0.615 4.177,-0.746 0.947,-1.359 0.613,-3.228 -0.747,-4.175 L 1.713,0.539 C 1.19,0.175 0.592,0 0,0"
         style="fill:#434040;fill-opacity:1;fill-rule:nonzero;stroke:none"
         id="path7616"
         inkscape:connector-curvature="0" />
    </g>
  </g>
</svg>
